{
 "metadata": {
  "language_info": {
   "codemirror_mode": {
    "name": "ipython",
    "version": 3
   },
   "file_extension": ".py",
   "mimetype": "text/x-python",
   "name": "python",
   "nbconvert_exporter": "python",
   "pygments_lexer": "ipython3",
   "version": "3.7.9-final"
  },
  "orig_nbformat": 2,
  "kernelspec": {
   "name": "python37964bitgmrcf81cfdfab8954b429b0a01dc90383b31",
   "display_name": "Python 3.7.9 64-bit ('gmrc')",
   "language": "python"
  }
 },
 "nbformat": 4,
 "nbformat_minor": 2,
 "cells": [
  {
   "source": [
    "## Set the paths\n",
    "\n",
    "Download the visual features, and raw videos if you haven't yet.\n",
    "And then set the paths"
   ],
   "cell_type": "markdown",
   "metadata": {}
  },
  {
   "cell_type": "code",
   "execution_count": 1,
   "metadata": {},
   "outputs": [],
   "source": [
    "# download visaul features\n",
    "# !gdown --id 1jS2ufbIovxg8umkZM5UKzsvtSp4UJJyt\n",
    "\n",
    "VISUAL_FEATURES_DIR = {}\n",
    "VISUAL_FEATURES_DIR['train'] = \"/home/tk/datasets/MELD/visual-features/MELD-visual-features/train/\"\n",
    "VISUAL_FEATURES_DIR['dev'] = \"/home/tk/datasets/MELD/visual-features/MELD-visual-features/dev/\"\n",
    "VISUAL_FEATURES_DIR['test'] = \"/home/tk/datasets/MELD/visual-features/MELD-visual-features/test/\"\n",
    "\n",
    "# download the raw videos\n",
    "# !wget http://web.eecs.umich.edu/~mihalcea/downloads/MELD.Raw.tar.gz\n",
    "VIDS_DIR = {}\n",
    "VIDS_DIR['train'] = \"/home/tk/datasets/MELD/MELD.Raw/train/train_splits/\"\n",
    "VIDS_DIR['dev'] = \"/home/tk/datasets/MELD/MELD.Raw/dev/dev_splits_complete/\"\n",
    "VIDS_DIR['test'] = \"/home/tk/datasets/MELD/MELD.Raw/test/output_repeated_splits_test\"\n",
    "\n",
    "# This comes with VISUAL_FEATURES when you downloaded them.\n",
    "ANNOTATION_PATH = \"/home/tk/datasets/MELD/visual-features/MELD-visual-features/datasets.json\"\n",
    "\n",
    "THRESHOLDS = {'face': 0.8, 'angle': 1.15}\n",
    "\n",
    "SAVE_AT = './DEBUG'\n",
    "\n",
    "# in seconds\n",
    "IMAGE_INTERVAL = 0.5"
   ]
  },
  {
   "source": [
    "## Read pre-computed visual features and annotations"
   ],
   "cell_type": "markdown",
   "metadata": {}
  },
  {
   "cell_type": "code",
   "execution_count": 2,
   "metadata": {},
   "outputs": [
    {
     "output_type": "display_data",
     "data": {
      "text/plain": "HBox(children=(HTML(value=''), FloatProgress(value=0.0, max=3.0), HTML(value='')))",
      "application/vnd.jupyter.widget-view+json": {
       "version_major": 2,
       "version_minor": 0,
       "model_id": "f8835b2f0cba4c1c9d4fd5b00d0feea8"
      }
     },
     "metadata": {}
    },
    {
     "output_type": "display_data",
     "data": {
      "text/plain": "HBox(children=(HTML(value=''), FloatProgress(value=0.0, max=9988.0), HTML(value='')))",
      "application/vnd.jupyter.widget-view+json": {
       "version_major": 2,
       "version_minor": 0,
       "model_id": "beadbddcb7e241ea9c075d12430c3d1b"
      }
     },
     "metadata": {}
    },
    {
     "output_type": "stream",
     "name": "stdout",
     "text": [
      "\n"
     ]
    },
    {
     "output_type": "display_data",
     "data": {
      "text/plain": "HBox(children=(HTML(value=''), FloatProgress(value=0.0, max=1108.0), HTML(value='')))",
      "application/vnd.jupyter.widget-view+json": {
       "version_major": 2,
       "version_minor": 0,
       "model_id": "561ba6adc8fa4ce6adb56334879b74c9"
      }
     },
     "metadata": {}
    },
    {
     "output_type": "stream",
     "name": "stdout",
     "text": [
      "\n"
     ]
    },
    {
     "output_type": "display_data",
     "data": {
      "text/plain": "HBox(children=(HTML(value=''), FloatProgress(value=0.0, max=2610.0), HTML(value='')))",
      "application/vnd.jupyter.widget-view+json": {
       "version_major": 2,
       "version_minor": 0,
       "model_id": "55546635386b43df9d0b307771913e71"
      }
     },
     "metadata": {}
    },
    {
     "output_type": "stream",
     "name": "stdout",
     "text": [
      "\n\n"
     ]
    }
   ],
   "source": [
    "import json\n",
    "import numpy as np\n",
    "import os\n",
    "import json\n",
    "import av\n",
    "import cv2\n",
    "import random\n",
    "from glob import glob\n",
    "import pickle\n",
    "from datetime import datetime, timedelta\n",
    "from tqdm.notebook import tqdm\n",
    "\n",
    "with open(ANNOTATION_PATH, 'r') as stream:\n",
    "    datasets = json.load(stream)\n",
    "\n",
    "visual_features = {DATASET: glob(os.path.join(VISUAL_FEATURES_DIR[DATASET], '*.npy'))\n",
    "                   for DATASET in ['train', 'dev', 'test']}\n",
    "\n",
    "visual_features = {DATASET: {os.path.basename(vf).split('.npy')[0] : vf \n",
    "                   for vf in tqdm(visual_features[DATASET])}\n",
    "                   for DATASET in tqdm(['train', 'dev', 'test'])}\n",
    "\n",
    "with open('friends-time/friends-time.pkl', 'rb') as stream:\n",
    "    friends_time = pickle.load(stream)"
   ]
  },
  {
   "source": [
    "## Run on the images"
   ],
   "cell_type": "markdown",
   "metadata": {}
  },
  {
   "cell_type": "code",
   "execution_count": 3,
   "metadata": {},
   "outputs": [],
   "source": [
    "import os\n",
    "import av\n",
    "import numpy as np\n",
    "import cv2\n",
    "from tqdm.notebook import tqdm\n",
    "import time\n",
    "import csv\n",
    "from glob import glob\n",
    "import numpy as np\n",
    "import shutil\n",
    "import uuid\n",
    "\n",
    "\n",
    "MAIN_ACTORS = {}\n",
    "for path in glob('../main-actors/*.npy'):\n",
    "    name = path.split('/')[-1].split('.npy')[0]\n",
    "    MAIN_ACTORS[name] = np.load(path)\n",
    "\n",
    "def calc_angle_distance(emb1, emb2):\n",
    "    \"\"\"Calculate the angle (radian) distance between the embeddings.\"\"\"\n",
    "    return np.arccos(np.clip((emb1 @ emb2.T), -1, 1))\n",
    "\n",
    "def get_unique_dias(list_of_diautts):\n",
    "    return sorted(list(set([diautt.split('_')[0] for diautt in list_of_diautts])))\n",
    "\n",
    "def get_time_unix_ms(time_string):\n",
    "    hours, minutes, seconds = time_string.split(':')\n",
    "    seconds, milliseconds = seconds.split(',')\n",
    "    hours, minutes, seconds, milliseconds = int(hours), int(minutes), int(seconds), int(milliseconds)\n",
    "    time_datetime = friends_time[season][episode] + timedelta(hours=hours, minutes=minutes, seconds=seconds)\n",
    "    time_unix = time.mktime(time_datetime.timetuple())\n",
    "    time_unix_ms = int(time_unix*1000 + milliseconds)    \n",
    "\n",
    "    return time_unix_ms"
   ]
  },
  {
   "cell_type": "code",
   "execution_count": 12,
   "metadata": {
    "tags": []
   },
   "outputs": [
    {
     "output_type": "display_data",
     "data": {
      "text/plain": "HBox(children=(HTML(value=''), FloatProgress(value=0.0, max=3.0), HTML(value='')))",
      "application/vnd.jupyter.widget-view+json": {
       "version_major": 2,
       "version_minor": 0,
       "model_id": "7937a98dc106411792c692e77474a072"
      }
     },
     "metadata": {}
    },
    {
     "output_type": "display_data",
     "data": {
      "text/plain": "HBox(children=(HTML(value=''), FloatProgress(value=0.0, max=1038.0), HTML(value='')))",
      "application/vnd.jupyter.widget-view+json": {
       "version_major": 2,
       "version_minor": 0,
       "model_id": "c4367796d5114c998c6dd4fa88e7df71"
      }
     },
     "metadata": {}
    },
    {
     "output_type": "stream",
     "name": "stdout",
     "text": [
      "name    : SubtitleHandler\n",
      "Stream mapping:\n",
      "  Stream #0:1 -> #0:0 (aac (native) -> mp3 (libmp3lame))\n",
      "Press [q] to stop, [?] for help\n",
      "Output #0, mp3, to './DEBUG/train/dia10/audio/dia10_utt5.mp3':\n",
      "  Metadata:\n",
      "    major_brand     : isom\n",
      "    minor_version   : 512\n",
      "    compatible_brands: isomiso2avc1mp41\n",
      "    TSSE            : Lavf58.45.100\n",
      "    Chapter #0:0: start 0.000000, end 2.251000\n",
      "    Metadata:\n",
      "      TIT2            : 00:11:56.132\n",
      "    Stream #0:0(eng): Audio: mp3 (libmp3lame), 48000 Hz, stereo, fltp (default)\n",
      "    Metadata:\n",
      "      handler_name    : SoundHandler\n",
      "      encoder         : Lavc58.91.100 libmp3lame\n",
      "size=      58kB time=00:00:02.28 bitrate= 209.9kbits/s speed=67.2x    \n",
      "video:0kB audio:58kB subtitle:0kB other streams:0kB global headers:0kB muxing overhead: 0.696688%\n",
      "ffmpeg version 4.3.1-4ubuntu1 Copyright (c) 2000-2020 the FFmpeg developers\n",
      "  built with gcc 10 (Ubuntu 10.2.0-9ubuntu2)\n",
      "  configuration: --prefix=/usr --extra-version=4ubuntu1 --toolchain=hardened --libdir=/usr/lib/x86_64-linux-gnu --incdir=/usr/include/x86_64-linux-gnu --arch=amd64 --enable-gpl --disable-stripping --enable-avresample --disable-filter=resample --enable-gnutls --enable-ladspa --enable-libaom --enable-libass --enable-libbluray --enable-libbs2b --enable-libcaca --enable-libcdio --enable-libcodec2 --enable-libdav1d --enable-libflite --enable-libfontconfig --enable-libfreetype --enable-libfribidi --enable-libgme --enable-libgsm --enable-libjack --enable-libmp3lame --enable-libmysofa --enable-libopenjpeg --enable-libopenmpt --enable-libopus --enable-libpulse --enable-librabbitmq --enable-librsvg --enable-librubberband --enable-libshine --enable-libsnappy --enable-libsoxr --enable-libspeex --enable-libsrt --enable-libssh --enable-libtheora --enable-libtwolame --enable-libvidstab --enable-libvorbis --enable-libvpx --enable-libwavpack --enable-libwebp --enable-libx265 --enable-libxml2 --enable-libxvid --enable-libzmq --enable-libzvbi --enable-lv2 --enable-omx --enable-openal --enable-opencl --enable-opengl --enable-sdl2 --enable-pocketsphinx --enable-libmfx --enable-libdc1394 --enable-libdrm --enable-libiec61883 --enable-nvenc --enable-chromaprint --enable-frei0r --enable-libx264 --enable-shared\n",
      "  libavutil      56. 51.100 / 56. 51.100\n",
      "  libavcodec     58. 91.100 / 58. 91.100\n",
      "  libavformat    58. 45.100 / 58. 45.100\n",
      "  libavdevice    58. 10.100 / 58. 10.100\n",
      "  libavfilter     7. 85.100 /  7. 85.100\n",
      "  libavresample   4.  0.  0 /  4.  0.  0\n",
      "  libswscale      5.  7.100 /  5.  7.100\n",
      "  libswresample   3.  7.100 /  3.  7.100\n",
      "  libpostproc    55.  7.100 / 55.  7.100\n",
      "Input #0, mov,mp4,m4a,3gp,3g2,mj2, from '/home/tk/datasets/MELD/MELD.Raw/train/train_splits/dia100_utt0.mp4':\n",
      "  Metadata:\n",
      "    major_brand     : isom\n",
      "    minor_version   : 512\n",
      "    compatible_brands: isomiso2avc1mp41\n",
      "    encoder         : Lavf57.83.100\n",
      "  Duration: 00:00:01.90, start: 0.000000, bitrate: 2128 kb/s\n",
      "    Chapter #0:0: start 0.000000, end 1.876000\n",
      "    Metadata:\n",
      "      title           : 00:02:09.254\n",
      "    Stream #0:0(eng): Video: h264 (High) (avc1 / 0x31637661), yuv420p, 1280x720 [SAR 1:1 DAR 16:9], 1796 kb/s, 23.98 fps, 23.98 tbr, 27021 tbn, 47.95 tbc (default)\n",
      "    Metadata:\n",
      "      handler_name    : VideoHandler\n",
      "    Stream #0:1(eng): Audio: aac (LC) (mp4a / 0x6134706D), 48000 Hz, 5.1, fltp, 339 kb/s (default)\n",
      "    Metadata:\n",
      "      handler_name    : SoundHandler\n",
      "    Stream #0:2(eng): Data: bin_data (text / 0x74786574), 0 kb/s\n",
      "    Metadata:\n",
      "      handler_name    : SubtitleHandler\n",
      "Stream mapping:\n",
      "  Stream #0:1 -> #0:0 (aac (native) -> mp3 (libmp3lame))\n",
      "Press [q] to stop, [?] for help\n",
      "Output #0, mp3, to './DEBUG/train/dia100/audio/dia100_utt0.mp3':\n",
      "  Metadata:\n",
      "    major_brand     : isom\n",
      "    minor_version   : 512\n",
      "    compatible_brands: isomiso2avc1mp41\n",
      "    TSSE            : Lavf58.45.100\n",
      "    Chapter #0:0: start 0.000000, end 1.876000\n",
      "    Metadata:\n",
      "      TIT2            : 00:02:09.254\n",
      "    Stream #0:0(eng): Audio: mp3 (libmp3lame), 48000 Hz, stereo, fltp (default)\n",
      "    Metadata:\n",
      "      handler_name    : SoundHandler\n",
      "      encoder         : Lavc58.91.100 libmp3lame\n",
      "size=      47kB time=00:00:01.89 bitrate= 205.0kbits/s speed=48.2x    \n",
      "video:0kB audio:47kB subtitle:0kB other streams:0kB global headers:0kB muxing overhead: 0.859064%\n",
      "ffmpeg version 4.3.1-4ubuntu1 Copyright (c) 2000-2020 the FFmpeg developers\n",
      "  built with gcc 10 (Ubuntu 10.2.0-9ubuntu2)\n",
      "  configuration: --prefix=/usr --extra-version=4ubuntu1 --toolchain=hardened --libdir=/usr/lib/x86_64-linux-gnu --incdir=/usr/include/x86_64-linux-gnu --arch=amd64 --enable-gpl --disable-stripping --enable-avresample --disable-filter=resample --enable-gnutls --enable-ladspa --enable-libaom --enable-libass --enable-libbluray --enable-libbs2b --enable-libcaca --enable-libcdio --enable-libcodec2 --enable-libdav1d --enable-libflite --enable-libfontconfig --enable-libfreetype --enable-libfribidi --enable-libgme --enable-libgsm --enable-libjack --enable-libmp3lame --enable-libmysofa --enable-libopenjpeg --enable-libopenmpt --enable-libopus --enable-libpulse --enable-librabbitmq --enable-librsvg --enable-librubberband --enable-libshine --enable-libsnappy --enable-libsoxr --enable-libspeex --enable-libsrt --enable-libssh --enable-libtheora --enable-libtwolame --enable-libvidstab --enable-libvorbis --enable-libvpx --enable-libwavpack --enable-libwebp --enable-libx265 --enable-libxml2 --enable-libxvid --enable-libzmq --enable-libzvbi --enable-lv2 --enable-omx --enable-openal --enable-opencl --enable-opengl --enable-sdl2 --enable-pocketsphinx --enable-libmfx --enable-libdc1394 --enable-libdrm --enable-libiec61883 --enable-nvenc --enable-chromaprint --enable-frei0r --enable-libx264 --enable-shared\n",
      "  libavutil      56. 51.100 / 56. 51.100\n",
      "  libavcodec     58. 91.100 / 58. 91.100\n",
      "  libavformat    58. 45.100 / 58. 45.100\n",
      "  libavdevice    58. 10.100 / 58. 10.100\n",
      "  libavfilter     7. 85.100 /  7. 85.100\n",
      "  libavresample   4.  0.  0 /  4.  0.  0\n",
      "  libswscale      5.  7.100 /  5.  7.100\n",
      "  libswresample   3.  7.100 /  3.  7.100\n",
      "  libpostproc    55.  7.100 / 55.  7.100\n",
      "Input #0, mov,mp4,m4a,3gp,3g2,mj2, from '/home/tk/datasets/MELD/MELD.Raw/train/train_splits/dia100_utt1.mp4':\n",
      "  Metadata:\n",
      "    major_brand     : isom\n",
      "    minor_version   : 512\n",
      "    compatible_brands: isomiso2avc1mp41\n",
      "    encoder         : Lavf57.83.100\n",
      "  Duration: 00:00:03.65, start: 0.000000, bitrate: 1710 kb/s\n",
      "    Chapter #0:0: start 0.000000, end 3.627000\n",
      "    Metadata:\n",
      "      title           : 00:02:09.254\n",
      "    Stream #0:0(eng): Video: h264 (High) (avc1 / 0x31637661), yuv420p, 1280x720 [SAR 1:1 DAR 16:9], 1365 kb/s, 23.98 fps, 23.98 tbr, 27021 tbn, 47.95 tbc (default)\n",
      "    Metadata:\n",
      "      handler_name    : VideoHandler\n",
      "    Stream #0:1(eng): Audio: aac (LC) (mp4a / 0x6134706D), 48000 Hz, 5.1, fltp, 342 kb/s (default)\n",
      "    Metadata:\n",
      "      handler_name    : SoundHandler\n",
      "    Stream #0:2(eng): Data: bin_data (text / 0x74786574), 0 kb/s\n",
      "    Metadata:\n",
      "      handler_name    : SubtitleHandler\n",
      "Stream mapping:\n",
      "  Stream #0:1 -> #0:0 (aac (native) -> mp3 (libmp3lame))\n",
      "Press [q] to stop, [?] for help\n",
      "Output #0, mp3, to './DEBUG/train/dia100/audio/dia100_utt1.mp3':\n",
      "  Metadata:\n",
      "    major_brand     : isom\n",
      "    minor_version   : 512\n",
      "    compatible_brands: isomiso2avc1mp41\n",
      "    TSSE            : Lavf58.45.100\n",
      "    Chapter #0:0: start 0.000000, end 3.627000\n",
      "    Metadata:\n",
      "      TIT2            : 00:02:09.254\n",
      "    Stream #0:0(eng): Audio: mp3 (libmp3lame), 48000 Hz, stereo, fltp (default)\n",
      "    Metadata:\n",
      "      handler_name    : SoundHandler\n",
      "      encoder         : Lavc58.91.100 libmp3lame\n",
      "size=      89kB time=00:00:03.64 bitrate= 200.9kbits/s speed=  60x    \n",
      "video:0kB audio:89kB subtitle:0kB other streams:0kB global headers:0kB muxing overhead: 0.453947%\n",
      "ffmpeg version 4.3.1-4ubuntu1 Copyright (c) 2000-2020 the FFmpeg developers\n",
      "  built with gcc 10 (Ubuntu 10.2.0-9ubuntu2)\n",
      "  configuration: --prefix=/usr --extra-version=4ubuntu1 --toolchain=hardened --libdir=/usr/lib/x86_64-linux-gnu --incdir=/usr/include/x86_64-linux-gnu --arch=amd64 --enable-gpl --disable-stripping --enable-avresample --disable-filter=resample --enable-gnutls --enable-ladspa --enable-libaom --enable-libass --enable-libbluray --enable-libbs2b --enable-libcaca --enable-libcdio --enable-libcodec2 --enable-libdav1d --enable-libflite --enable-libfontconfig --enable-libfreetype --enable-libfribidi --enable-libgme --enable-libgsm --enable-libjack --enable-libmp3lame --enable-libmysofa --enable-libopenjpeg --enable-libopenmpt --enable-libopus --enable-libpulse --enable-librabbitmq --enable-librsvg --enable-librubberband --enable-libshine --enable-libsnappy --enable-libsoxr --enable-libspeex --enable-libsrt --enable-libssh --enable-libtheora --enable-libtwolame --enable-libvidstab --enable-libvorbis --enable-libvpx --enable-libwavpack --enable-libwebp --enable-libx265 --enable-libxml2 --enable-libxvid --enable-libzmq --enable-libzvbi --enable-lv2 --enable-omx --enable-openal --enable-opencl --enable-opengl --enable-sdl2 --enable-pocketsphinx --enable-libmfx --enable-libdc1394 --enable-libdrm --enable-libiec61883 --enable-nvenc --enable-chromaprint --enable-frei0r --enable-libx264 --enable-shared\n",
      "  libavutil      56. 51.100 / 56. 51.100\n",
      "  libavcodec     58. 91.100 / 58. 91.100\n",
      "  libavformat    58. 45.100 / 58. 45.100\n",
      "  libavdevice    58. 10.100 / 58. 10.100\n",
      "  libavfilter     7. 85.100 /  7. 85.100\n",
      "  libavresample   4.  0.  0 /  4.  0.  0\n",
      "  libswscale      5.  7.100 /  5.  7.100\n",
      "  libswresample   3.  7.100 /  3.  7.100\n",
      "  libpostproc    55.  7.100 / 55.  7.100\n",
      "Input #0, mov,mp4,m4a,3gp,3g2,mj2, from '/home/tk/datasets/MELD/MELD.Raw/train/train_splits/dia100_utt2.mp4':\n",
      "  Metadata:\n",
      "    major_brand     : isom\n",
      "    minor_version   : 512\n",
      "    compatible_brands: isomiso2avc1mp41\n",
      "    encoder         : Lavf58.12.100\n",
      "  Duration: 00:00:01.13, start: 0.000000, bitrate: 1967 kb/s\n",
      "    Chapter #0:0: start 0.000000, end 1.100000\n",
      "    Metadata:\n",
      "      title           : 00:02:09.254\n",
      "    Stream #0:0(eng): Video: h264 (High) (avc1 / 0x31637661), yuv420p, 1280x720 [SAR 1:1 DAR 16:9], 1611 kb/s, 23.98 fps, 23.98 tbr, 27021 tbn, 47.95 tbc (default)\n",
      "    Metadata:\n",
      "      handler_name    : VideoHandler\n",
      "    Stream #0:1(eng): Audio: aac (LC) (mp4a / 0x6134706D), 48000 Hz, 5.1, fltp, 339 kb/s (default)\n",
      "    Metadata:\n",
      "      handler_name    : SoundHandler\n",
      "    Stream #0:2(eng): Data: bin_data (text / 0x74786574), 0 kb/s\n",
      "    Metadata:\n",
      "      handler_name    : SubtitleHandler\n",
      "Stream mapping:\n",
      "  Stream #0:1 -> #0:0 (aac (native) -> mp3 (libmp3lame))\n",
      "Press [q] to stop, [?] for help\n",
      "Output #0, mp3, to './DEBUG/train/dia100/audio/dia100_utt2.mp3':\n",
      "  Metadata:\n",
      "    major_brand     : isom\n",
      "    minor_version   : 512\n",
      "    compatible_brands: isomiso2avc1mp41\n",
      "    TSSE            : Lavf58.45.100\n",
      "    Chapter #0:0: start 0.000000, end 1.100000\n",
      "    Metadata:\n",
      "      TIT2            : 00:02:09.254\n",
      "    Stream #0:0(eng): Audio: mp3 (libmp3lame), 48000 Hz, stereo, fltp (default)\n",
      "    Metadata:\n",
      "      handler_name    : SoundHandler\n",
      "      encoder         : Lavc58.91.100 libmp3lame\n",
      "size=      29kB time=00:00:01.12 bitrate= 213.1kbits/s speed=61.8x    \n",
      "video:0kB audio:29kB subtitle:0kB other streams:0kB global headers:0kB muxing overhead: 1.395631%\n",
      "ffmpeg version 4.3.1-4ubuntu1 Copyright (c) 2000-2020 the FFmpeg developers\n",
      "  built with gcc 10 (Ubuntu 10.2.0-9ubuntu2)\n",
      "  configuration: --prefix=/usr --extra-version=4ubuntu1 --toolchain=hardened --libdir=/usr/lib/x86_64-linux-gnu --incdir=/usr/include/x86_64-linux-gnu --arch=amd64 --enable-gpl --disable-stripping --enable-avresample --disable-filter=resample --enable-gnutls --enable-ladspa --enable-libaom --enable-libass --enable-libbluray --enable-libbs2b --enable-libcaca --enable-libcdio --enable-libcodec2 --enable-libdav1d --enable-libflite --enable-libfontconfig --enable-libfreetype --enable-libfribidi --enable-libgme --enable-libgsm --enable-libjack --enable-libmp3lame --enable-libmysofa --enable-libopenjpeg --enable-libopenmpt --enable-libopus --enable-libpulse --enable-librabbitmq --enable-librsvg --enable-librubberband --enable-libshine --enable-libsnappy --enable-libsoxr --enable-libspeex --enable-libsrt --enable-libssh --enable-libtheora --enable-libtwolame --enable-libvidstab --enable-libvorbis --enable-libvpx --enable-libwavpack --enable-libwebp --enable-libx265 --enable-libxml2 --enable-libxvid --enable-libzmq --enable-libzvbi --enable-lv2 --enable-omx --enable-openal --enable-opencl --enable-opengl --enable-sdl2 --enable-pocketsphinx --enable-libmfx --enable-libdc1394 --enable-libdrm --enable-libiec61883 --enable-nvenc --enable-chromaprint --enable-frei0r --enable-libx264 --enable-shared\n",
      "  libavutil      56. 51.100 / 56. 51.100\n",
      "  libavcodec     58. 91.100 / 58. 91.100\n",
      "  libavformat    58. 45.100 / 58. 45.100\n",
      "  libavdevice    58. 10.100 / 58. 10.100\n",
      "  libavfilter     7. 85.100 /  7. 85.100\n",
      "  libavresample   4.  0.  0 /  4.  0.  0\n",
      "  libswscale      5.  7.100 /  5.  7.100\n",
      "  libswresample   3.  7.100 /  3.  7.100\n",
      "  libpostproc    55.  7.100 / 55.  7.100\n",
      "Input #0, mov,mp4,m4a,3gp,3g2,mj2, from '/home/tk/datasets/MELD/MELD.Raw/train/train_splits/dia100_utt3.mp4':\n",
      "  Metadata:\n",
      "    major_brand     : isom\n",
      "    minor_version   : 512\n",
      "    compatible_brands: isomiso2avc1mp41\n",
      "    encoder         : Lavf58.12.100\n",
      "  Duration: 00:00:02.48, start: 0.000000, bitrate: 1888 kb/s\n",
      "    Chapter #0:0: start 0.000000, end 2.444000\n",
      "    Metadata:\n",
      "      title           : 00:02:09.254\n",
      "    Stream #0:0(eng): Video: h264 (High) (avc1 / 0x31637661), yuv420p, 1280x720 [SAR 1:1 DAR 16:9], 1552 kb/s, 23.98 fps, 23.98 tbr, 27021 tbn, 47.95 tbc (default)\n",
      "    Metadata:\n",
      "      handler_name    : VideoHandler\n",
      "    Stream #0:1(eng): Audio: aac (LC) (mp4a / 0x6134706D), 48000 Hz, 5.1, fltp, 338 kb/s (default)\n",
      "    Metadata:\n",
      "      handler_name    : SoundHandler\n",
      "    Stream #0:2(eng): Data: bin_data (text / 0x74786574), 0 kb/s\n",
      "    Metadata:\n",
      "      handler_name    : SubtitleHandler\n",
      "Stream mapping:\n",
      "  Stream #0:1 -> #0:0 (aac (native) -> mp3 (libmp3lame))\n",
      "Press [q] to stop, [?] for help\n",
      "Output #0, mp3, to './DEBUG/train/dia100/audio/dia100_utt3.mp3':\n",
      "  Metadata:\n",
      "    major_brand     : isom\n",
      "    minor_version   : 512\n",
      "    compatible_brands: isomiso2avc1mp41\n",
      "    TSSE            : Lavf58.45.100\n",
      "    Chapter #0:0: start 0.000000, end 2.444000\n",
      "    Metadata:\n",
      "      TIT2            : 00:02:09.254\n",
      "    Stream #0:0(eng): Audio: mp3 (libmp3lame), 48000 Hz, stereo, fltp (default)\n",
      "    Metadata:\n",
      "      handler_name    : SoundHandler\n",
      "      encoder         : Lavc58.91.100 libmp3lame\n",
      "size=      57kB time=00:00:02.49 bitrate= 187.4kbits/s speed=57.4x    \n",
      "video:0kB audio:57kB subtitle:0kB other streams:0kB global headers:0kB muxing overhead: 0.712810%\n",
      "ffmpeg version 4.3.1-4ubuntu1 Copyright (c) 2000-2020 the FFmpeg developers\n",
      "  built with gcc 10 (Ubuntu 10.2.0-9ubuntu2)\n",
      "  configuration: --prefix=/usr --extra-version=4ubuntu1 --toolchain=hardened --libdir=/usr/lib/x86_64-linux-gnu --incdir=/usr/include/x86_64-linux-gnu --arch=amd64 --enable-gpl --disable-stripping --enable-avresample --disable-filter=resample --enable-gnutls --enable-ladspa --enable-libaom --enable-libass --enable-libbluray --enable-libbs2b --enable-libcaca --enable-libcdio --enable-libcodec2 --enable-libdav1d --enable-libflite --enable-libfontconfig --enable-libfreetype --enable-libfribidi --enable-libgme --enable-libgsm --enable-libjack --enable-libmp3lame --enable-libmysofa --enable-libopenjpeg --enable-libopenmpt --enable-libopus --enable-libpulse --enable-librabbitmq --enable-librsvg --enable-librubberband --enable-libshine --enable-libsnappy --enable-libsoxr --enable-libspeex --enable-libsrt --enable-libssh --enable-libtheora --enable-libtwolame --enable-libvidstab --enable-libvorbis --enable-libvpx --enable-libwavpack --enable-libwebp --enable-libx265 --enable-libxml2 --enable-libxvid --enable-libzmq --enable-libzvbi --enable-lv2 --enable-omx --enable-openal --enable-opencl --enable-opengl --enable-sdl2 --enable-pocketsphinx --enable-libmfx --enable-libdc1394 --enable-libdrm --enable-libiec61883 --enable-nvenc --enable-chromaprint --enable-frei0r --enable-libx264 --enable-shared\n",
      "  libavutil      56. 51.100 / 56. 51.100\n",
      "  libavcodec     58. 91.100 / 58. 91.100\n",
      "  libavformat    58. 45.100 / 58. 45.100\n",
      "  libavdevice    58. 10.100 / 58. 10.100\n",
      "  libavfilter     7. 85.100 /  7. 85.100\n",
      "  libavresample   4.  0.  0 /  4.  0.  0\n",
      "  libswscale      5.  7.100 /  5.  7.100\n",
      "  libswresample   3.  7.100 /  3.  7.100\n",
      "  libpostproc    55.  7.100 / 55.  7.100\n",
      "Input #0, mov,mp4,m4a,3gp,3g2,mj2, from '/home/tk/datasets/MELD/MELD.Raw/train/train_splits/dia100_utt4.mp4':\n",
      "  Metadata:\n",
      "    major_brand     : isom\n",
      "    minor_version   : 512\n",
      "    compatible_brands: isomiso2avc1mp41\n",
      "    encoder         : Lavf57.83.100\n",
      "  Duration: 00:00:07.53, start: 0.000000, bitrate: 2137 kb/s\n",
      "    Chapter #0:0: start 0.000000, end 7.507000\n",
      "    Metadata:\n",
      "      title           : 00:02:09.254\n",
      "    Stream #0:0(eng): Video: h264 (High) (avc1 / 0x31637661), yuv420p, 1280x720 [SAR 1:1 DAR 16:9], 1794 kb/s, 23.98 fps, 23.98 tbr, 27021 tbn, 47.95 tbc (default)\n",
      "    Metadata:\n",
      "      handler_name    : VideoHandler\n",
      "    Stream #0:1(eng): Audio: aac (LC) (mp4a / 0x6134706D), 48000 Hz, 5.1, fltp, 340 kb/s (default)\n",
      "    Metadata:\n",
      "      handler_name    : SoundHandler\n",
      "    Stream #0:2(eng): Data: bin_data (text / 0x74786574), 0 kb/s\n",
      "    Metadata:\n",
      "      handler_name    : SubtitleHandler\n",
      "Stream mapping:\n",
      "  Stream #0:1 -> #0:0 (aac (native) -> mp3 (libmp3lame))\n",
      "Press [q] to stop, [?] for help\n",
      "Output #0, mp3, to './DEBUG/train/dia100/audio/dia100_utt4.mp3':\n",
      "  Metadata:\n",
      "    major_brand     : isom\n",
      "    minor_version   : 512\n",
      "    compatible_brands: isomiso2avc1mp41\n",
      "    TSSE            : Lavf58.45.100\n",
      "    Chapter #0:0: start 0.000000, end 7.507000\n",
      "    Metadata:\n",
      "      TIT2            : 00:02:09.254\n",
      "    Stream #0:0(eng): Audio: mp3 (libmp3lame), 48000 Hz, stereo, fltp (default)\n",
      "    Metadata:\n",
      "      handler_name    : SoundHandler\n",
      "      encoder         : Lavc58.91.100 libmp3lame\n",
      "size=     190kB time=00:00:07.51 bitrate= 206.7kbits/s speed=63.4x    \n",
      "video:0kB audio:189kB subtitle:0kB other streams:0kB global headers:0kB muxing overhead: 0.213702%\n",
      "ffmpeg version 4.3.1-4ubuntu1 Copyright (c) 2000-2020 the FFmpeg developers\n",
      "  built with gcc 10 (Ubuntu 10.2.0-9ubuntu2)\n",
      "  configuration: --prefix=/usr --extra-version=4ubuntu1 --toolchain=hardened --libdir=/usr/lib/x86_64-linux-gnu --incdir=/usr/include/x86_64-linux-gnu --arch=amd64 --enable-gpl --disable-stripping --enable-avresample --disable-filter=resample --enable-gnutls --enable-ladspa --enable-libaom --enable-libass --enable-libbluray --enable-libbs2b --enable-libcaca --enable-libcdio --enable-libcodec2 --enable-libdav1d --enable-libflite --enable-libfontconfig --enable-libfreetype --enable-libfribidi --enable-libgme --enable-libgsm --enable-libjack --enable-libmp3lame --enable-libmysofa --enable-libopenjpeg --enable-libopenmpt --enable-libopus --enable-libpulse --enable-librabbitmq --enable-librsvg --enable-librubberband --enable-libshine --enable-libsnappy --enable-libsoxr --enable-libspeex --enable-libsrt --enable-libssh --enable-libtheora --enable-libtwolame --enable-libvidstab --enable-libvorbis --enable-libvpx --enable-libwavpack --enable-libwebp --enable-libx265 --enable-libxml2 --enable-libxvid --enable-libzmq --enable-libzvbi --enable-lv2 --enable-omx --enable-openal --enable-opencl --enable-opengl --enable-sdl2 --enable-pocketsphinx --enable-libmfx --enable-libdc1394 --enable-libdrm --enable-libiec61883 --enable-nvenc --enable-chromaprint --enable-frei0r --enable-libx264 --enable-shared\n",
      "  libavutil      56. 51.100 / 56. 51.100\n",
      "  libavcodec     58. 91.100 / 58. 91.100\n",
      "  libavformat    58. 45.100 / 58. 45.100\n",
      "  libavdevice    58. 10.100 / 58. 10.100\n",
      "  libavfilter     7. 85.100 /  7. 85.100\n",
      "  libavresample   4.  0.  0 /  4.  0.  0\n",
      "  libswscale      5.  7.100 /  5.  7.100\n",
      "  libswresample   3.  7.100 /  3.  7.100\n",
      "  libpostproc    55.  7.100 / 55.  7.100\n",
      "size=     118kB time=00:00:04.58 bitrate= 210.4kbits/s speed=57.8x    \n",
      "video:0kB audio:117kB subtitle:0kB other streams:0kB global headers:0kB muxing overhead: 0.344449%\n",
      "^C\n",
      "\n",
      "\n"
     ]
    },
    {
     "output_type": "error",
     "ename": "KeyboardInterrupt",
     "evalue": "",
     "traceback": [
      "\u001b[0;31m---------------------------------------------------------------------------\u001b[0m",
      "\u001b[0;31mKeyboardInterrupt\u001b[0m                         Traceback (most recent call last)",
      "\u001b[0;32m<ipython-input-12-3bb080afe308>\u001b[0m in \u001b[0;36m<module>\u001b[0;34m\u001b[0m\n\u001b[1;32m     40\u001b[0m             \u001b[0mget_ipython\u001b[0m\u001b[0;34m(\u001b[0m\u001b[0;34m)\u001b[0m\u001b[0;34m.\u001b[0m\u001b[0msystem\u001b[0m\u001b[0;34m(\u001b[0m\u001b[0;34m'ffmpeg -i $vidpath -q:a 0 -map a $SAVE_AT/$DATASET/$dia/audio/$aud'\u001b[0m\u001b[0;34m)\u001b[0m\u001b[0;34m\u001b[0m\u001b[0;34m\u001b[0m\u001b[0m\n\u001b[1;32m     41\u001b[0m \u001b[0;34m\u001b[0m\u001b[0m\n\u001b[0;32m---> 42\u001b[0;31m             \u001b[0mcontainer\u001b[0m \u001b[0;34m=\u001b[0m \u001b[0mav\u001b[0m\u001b[0;34m.\u001b[0m\u001b[0mopen\u001b[0m\u001b[0;34m(\u001b[0m\u001b[0mvidpath\u001b[0m\u001b[0;34m)\u001b[0m\u001b[0;34m\u001b[0m\u001b[0;34m\u001b[0m\u001b[0m\n\u001b[0m\u001b[1;32m     43\u001b[0m             \u001b[0mfps\u001b[0m \u001b[0;34m=\u001b[0m \u001b[0mfloat\u001b[0m\u001b[0;34m(\u001b[0m\u001b[0mcontainer\u001b[0m\u001b[0;34m.\u001b[0m\u001b[0mstreams\u001b[0m\u001b[0;34m.\u001b[0m\u001b[0mvideo\u001b[0m\u001b[0;34m[\u001b[0m\u001b[0;36m0\u001b[0m\u001b[0;34m]\u001b[0m\u001b[0;34m.\u001b[0m\u001b[0maverage_rate\u001b[0m\u001b[0;34m)\u001b[0m\u001b[0;34m\u001b[0m\u001b[0;34m\u001b[0m\u001b[0m\n\u001b[1;32m     44\u001b[0m             \u001b[0mspf\u001b[0m \u001b[0;34m=\u001b[0m \u001b[0;36m1\u001b[0m\u001b[0;34m/\u001b[0m\u001b[0mfps\u001b[0m\u001b[0;34m\u001b[0m\u001b[0;34m\u001b[0m\u001b[0m\n",
      "\u001b[0;32mav/container/core.pyx\u001b[0m in \u001b[0;36mav.container.core.open\u001b[0;34m()\u001b[0m\n",
      "\u001b[0;32mav/container/input.pyx\u001b[0m in \u001b[0;36mav.container.input.InputContainer.__cinit__\u001b[0;34m()\u001b[0m\n",
      "\u001b[0;32mav/stream.pyx\u001b[0m in \u001b[0;36mav.stream.wrap_stream\u001b[0;34m()\u001b[0m\n",
      "\u001b[0;32m/usr/lib/python3.7/importlib/_bootstrap.py\u001b[0m in \u001b[0;36mparent\u001b[0;34m(self)\u001b[0m\n",
      "\u001b[0;31mKeyboardInterrupt\u001b[0m: "
     ]
    }
   ],
   "source": [
    "for DATASET in tqdm(['train', 'dev', 'test']):\n",
    "    diautts_ = list(datasets[DATASET].keys())\n",
    "    \n",
    "    dias = get_unique_dias(diautts_)\n",
    "    diautts_ = {dia: [diautt for diautt in diautts_ if dia + '_' in diautt] for dia in dias}\n",
    "\n",
    "    for dia, diautts in tqdm(diautts_.items()):\n",
    "        shutil.rmtree(os.path.join(SAVE_AT, DATASET, dia), ignore_errors=True)\n",
    "        os.makedirs(os.path.join(SAVE_AT, DATASET, dia, 'image'), exist_ok=True)\n",
    "        os.makedirs(os.path.join(SAVE_AT, DATASET, dia, 'text'), exist_ok=True)\n",
    "        os.makedirs(os.path.join(SAVE_AT, DATASET, dia, 'audio'), exist_ok=True)\n",
    "\n",
    "        image_gmrc = []\n",
    "        chat = []\n",
    "        for diautt in diautts:\n",
    "            try:\n",
    "                annot = datasets[DATASET][diautt] \n",
    "                vis = visual_features[DATASET][diautt]\n",
    "            except KeyError as e:\n",
    "                print(e)\n",
    "                continue\n",
    "            vis = np.load(vis, allow_pickle=True).item()\n",
    "            vidpath = os.path.join(VIDS_DIR[DATASET], diautt) + '.mp4'\n",
    "\n",
    "            season = annot['Season']\n",
    "            episode = annot['Episode']\n",
    "            emotion = annot['Emotion']\n",
    "            sentiment = annot['Sentiment']\n",
    "            utterance = annot['Utterance']\n",
    "            speaker = annot['Speaker']\n",
    "\n",
    "            starttime = annot['StartTime']\n",
    "            endtime = annot['EndTime']\n",
    "\n",
    "            time_unix_ms_start = get_time_unix_ms(starttime)\n",
    "            time_unix_ms_end = get_time_unix_ms(endtime)\n",
    "            chat.append([speaker, utterance, time_unix_ms_start])\n",
    "\n",
    "            aud = diautt + '.mp3'\n",
    "            !ffmpeg -i $vidpath -q:a 0 -map a $SAVE_AT/$DATASET/$dia/audio/$aud\n",
    "\n",
    "            container = av.open(vidpath)\n",
    "            fps = float(container.streams.video[0].average_rate)\n",
    "            spf = 1/fps \n",
    "            mspf = round(spf * 1000)\n",
    "            for idx, frame in enumerate(container.decode(video=0)):\n",
    "                if idx % round(IMAGE_INTERVAL * fps) != 0:\n",
    "                    continue\n",
    "\n",
    "                numpy_RGB = np.array(frame.to_image())\n",
    "                numpy_BGR = cv2.cvtColor(numpy_RGB, cv2.COLOR_RGB2BGR)\n",
    "                img_time = idx*mspf + time_unix_ms_start\n",
    "                impath = os.path.join(SAVE_AT, DATASET, dia, 'image', \n",
    "                                       diautt + f'_frame{str(idx).zfill(5)}_{str(img_time)}.jpg')\n",
    "                cv2.imwrite(impath, numpy_BGR)\n",
    "\n",
    "                features = vis[idx]\n",
    "\n",
    "                if not features:\n",
    "                    continue\n",
    "\n",
    "                to_append = {}\n",
    "                to_append['files'] = [os.path.join('image', os.path.basename(impath))]\n",
    "                container_id = str(uuid.uuid4())\n",
    "                to_append['id'] = container_id\n",
    "                to_append['mentions'] = []\n",
    "\n",
    "\n",
    "\n",
    "                for k, feat in enumerate(features):\n",
    "                    age = round(float(feat['age']), 3)\n",
    "                    gender = round(float(feat['gender']), 3)\n",
    "                    bbox = feat['bbox']\n",
    "                    bbox, faceprob = [int(round(bb)) for bb in bbox[:4]], float(bbox[-1])\n",
    "                    faceprob = round(faceprob, 3)\n",
    "                    embedding = feat['embedding']\n",
    "                    landmark = feat['landmark']\n",
    "\n",
    "                    annotations = []\n",
    "\n",
    "                    embedding.reshape(1, 512)\n",
    "                    dists = {key: calc_angle_distance(embedding, val) for key, val \\\n",
    "                                in MAIN_ACTORS.items()}\n",
    "                    face_candidate = min(dists, key=dists.get)\n",
    "\n",
    "                    if dists[face_candidate] > THRESHOLDS['angle']:\n",
    "                        face_candidate = None\n",
    "\n",
    "                    # if face_candidate is not None:\n",
    "                    # annotations.append(\n",
    "                    #     {\n",
    "                    #     'source': 'human',\n",
    "                    #     'timestamp': round(time.time()*1000),\n",
    "                    #     'type': 'emotion',\n",
    "                    #     'value': emotion.upper()\n",
    "                    #     }\n",
    "                    # )\n",
    "\n",
    "                    annotations.append(\n",
    "                        {\n",
    "                            'source': 'machine',\n",
    "                            'timestamp': round(time.time()*1000),\n",
    "                            'type': 'person',\n",
    "                            'value': \n",
    "                                {'name': face_candidate,\n",
    "                                    'age': age,\n",
    "                                    'gender': gender,\n",
    "                                    'faceprob': faceprob}\n",
    "                        }\n",
    "                    )\n",
    "                    \n",
    "                    mention_id = str(uuid.uuid4())\n",
    "                    segment = [\n",
    "                        {\n",
    "                            'bounds': bbox,\n",
    "                            'container_id': container_id,\n",
    "                            'type': 'MultiIndex'\n",
    "                            \n",
    "                        }\n",
    "                    ]\n",
    "                    to_append['mentions'].append(\n",
    "                        {\n",
    "                            'annotations': annotations,\n",
    "                            'id': mention_id,\n",
    "                            'segment': segment\n",
    "                        }\n",
    "                    )\n",
    "                    to_append['modality'] = 'image'\n",
    "                    to_append['ruler'] = {\n",
    "                        'bounds': [0, 0, numpy_BGR.shape[1], numpy_BGR.shape[0]],\n",
    "                        'container_id': container_id,\n",
    "                        'type': 'MultiIndex'\n",
    "                    }\n",
    "                    to_append['time'] = {\n",
    "                        'container_id': container_id,\n",
    "                        'start': time_unix_ms_start,\n",
    "                        'end': time_unix_ms_end,\n",
    "                        'type': 'TemporalRuler',\n",
    "                    }\n",
    "                    to_append['type'] = 'ImageSignal'\n",
    "\n",
    "                    image_gmrc.append(to_append)\n",
    "\n",
    "        with open(os.path.join(SAVE_AT, DATASET, dia, 'text', f'{dia}.csv'), 'w') as stream:\n",
    "            stream.write('speaker,utterance,time,emotion\\n')\n",
    "\n",
    "            for line in chat:\n",
    "                speaker, utterance, time_unix_ms_start = line\n",
    "                stream.write(speaker)\n",
    "                stream.write(',')\n",
    "                stream.write(f\"\\\"{utterance}\\\"\")\n",
    "                stream.write(',')\n",
    "                stream.write(str(time_unix_ms_start))\n",
    "                stream.write(',')\n",
    "                stream.write(emotion)\n",
    "                stream.write('\\n')    \n",
    "\n",
    "        with open(os.path.join(SAVE_AT, DATASET, dia, 'image.json'), 'w') as stream:\n",
    "            json.dump(image_gmrc, stream)"
   ]
  }
 ]
}